# xmcd CD database file
#
# Track frame offsets:
#	150
#	16785
#	27817
#	39310
#	56325
#	75280
#	92992
#	105572
#	117735
#	132187
#	157027
#	171940
#	189260
#
# Disc length: 2657 seconds
#
# Revision: 0
# Processed by: cddbd v1.5.2PL0 Copyright (c) Steve Scherf et al.
# Submitted via: CDex 1.70beta2
#
DISCID=980a5f0d
DTITLE=CAROL BLACK BAND - CAROL BLACK BAND
DYEAR=1900
DGENRE=Country
TTITLE0=LAY DOWN SALLY
TTITLE1=DEVIL IN DISGUISE
TTITLE2=YOU AIN'T WOMAN ENOUGH
TTITLE3=TULSA TIME
TTITLE4=CALL ME THE BREEZE
TTITLE5=WATER OF LOVE
TTITLE6=COTTONFIELDS
TTITLE7=WHO'S GONNA HELP ME
TTITLE8=SWEET, SWEET SMILE
TTITLE9=PURPLE RAIN
TTITLE10=MYSTERY TRAIN
TTITLE11=FIRE
TTITLE12=WHO'S CHEATIN'WHO
EXTD=
EXTT0=
EXTT1=
EXTT2=
EXTT3=
EXTT4=
EXTT5=
EXTT6=
EXTT7=
EXTT8=
EXTT9=
EXTT10=
EXTT11=
EXTT12=
PLAYORDER=
